<svg xmlns="http://www.w3.org/2000/svg" xmlns:xlink="http://www.w3.org/1999/xlink" width="500" zoomAndPan="magnify" viewBox="0 0 375 374.999991" height="500" preserveAspectRatio="xMidYMid meet" version="1.0"><defs><g/><clipPath id="b803ca2377"><path d="M 106.121094 125.007812 L 122 125.007812 L 122 146.757812 L 106.121094 146.757812 Z M 106.121094 125.007812 " clip-rule="nonzero"/></clipPath><clipPath id="0bab64f475"><path d="M 109 132 L 120 132 L 120 146.757812 L 109 146.757812 Z M 109 132 " clip-rule="nonzero"/></clipPath><clipPath id="5fb734165c"><path d="M 111 140 L 117 140 L 117 146.757812 L 111 146.757812 Z M 111 140 " clip-rule="nonzero"/></clipPath><clipPath id="e0406e034b"><path d="M 251.15625 125.007812 L 270 125.007812 L 270 150.507812 L 251.15625 150.507812 Z M 251.15625 125.007812 " clip-rule="nonzero"/></clipPath><clipPath id="44e2191a09"><path d="M 167.476562 126 L 185 126 L 185 149 L 167.476562 149 Z M 167.476562 126 " clip-rule="nonzero"/></clipPath><clipPath id="fd61670436"><path d="M 252.84375 189.082031 L 269 189.082031 L 269 210.832031 L 252.84375 210.832031 Z M 252.84375 189.082031 " clip-rule="nonzero"/></clipPath><clipPath id="50d401dd76"><path d="M 256 196 L 267 196 L 267 210.832031 L 256 210.832031 Z M 256 196 " clip-rule="nonzero"/></clipPath><clipPath id="d4a195936c"><path d="M 258 204 L 263 204 L 263 210.832031 L 258 210.832031 Z M 258 204 " clip-rule="nonzero"/></clipPath></defs><g clip-path="url(#b803ca2377)"><path fill="#f1473a" d="M 113.992188 146.453125 C 111.859375 146.453125 106.589844 146.109375 106.121094 139.820312 C 106.121094 139.820312 107.488281 142.324219 107.488281 142.03125 C 107.496094 141.074219 106.121094 137.574219 109.558594 135.1875 C 113.761719 132.273438 112.492188 128.691406 111.492188 128.625 C 111.492188 128.625 114.179688 128.339844 114.425781 132.039062 C 114.558594 134.050781 116.195312 128.242188 115.226562 125.03125 C 115.226562 125.03125 120.136719 127.726562 119.527344 134.359375 C 119.527344 134.359375 120.289062 132.855469 121.5625 133.660156 C 121.5625 133.660156 120.761719 133.945312 121.03125 136.15625 C 121.296875 138.367188 122.464844 146.453125 113.992188 146.453125 " fill-opacity="1" fill-rule="nonzero"/></g><g clip-path="url(#0bab64f475)"><path fill="#f79326" d="M 113.359375 146.222656 C 111.980469 146.160156 109.355469 145.84375 109.355469 142.285156 C 109.355469 138.726562 112.792969 138.242188 112.792969 134.960938 C 112.792969 134.960938 114.425781 135.546875 114.257812 137.171875 C 114.257812 137.171875 117.460938 135.097656 117.195312 132.644531 C 117.195312 132.644531 124.121094 146.734375 113.359375 146.222656 " fill-opacity="1" fill-rule="nonzero"/><path fill="#f79326" d="M 113.359375 146.222656 C 111.980469 146.160156 109.355469 145.84375 109.355469 142.285156 C 109.355469 138.726562 112.792969 138.242188 112.792969 134.960938 C 112.792969 134.960938 114.425781 135.546875 114.257812 137.171875 C 114.257812 137.171875 117.460938 135.097656 117.195312 132.644531 C 117.195312 132.644531 124.121094 146.734375 113.359375 146.222656 " fill-opacity="1" fill-rule="nonzero"/></g><g clip-path="url(#5fb734165c)"><path fill="#fff533" d="M 114.027344 140.09375 C 114.027344 140.09375 114.859375 142.625 113.492188 142.625 C 112.542969 142.625 112.660156 141.554688 112.660156 141.554688 C 112.660156 141.554688 110.007812 146.011719 114.027344 146.011719 C 114.839844 146.011719 116.261719 145.839844 116.261719 143.558594 C 116.261719 141.28125 115.027344 140.359375 114.027344 140.09375 " fill-opacity="1" fill-rule="nonzero"/></g><g clip-path="url(#e0406e034b)"><path fill="#f1473a" d="M 260.667969 150.152344 C 258.089844 150.152344 251.71875 149.746094 251.15625 142.371094 C 251.15625 142.371094 252.804688 145.3125 252.808594 144.964844 C 252.816406 143.84375 251.15625 139.738281 255.304688 136.945312 C 260.386719 133.523438 258.851562 129.328125 257.644531 129.246094 C 257.644531 129.246094 260.894531 128.917969 261.191406 133.25 C 261.351562 135.609375 263.328125 128.800781 262.15625 125.035156 C 262.15625 125.035156 268.089844 128.195312 267.355469 135.972656 C 267.355469 135.972656 268.273438 134.210938 269.8125 135.152344 C 269.8125 135.152344 268.847656 135.484375 269.167969 138.078125 C 269.492188 140.671875 270.902344 150.152344 260.667969 150.152344 " fill-opacity="1" fill-rule="nonzero"/></g><path fill="#f79326" d="M 259.902344 149.882812 C 258.234375 149.804688 255.066406 149.4375 255.066406 145.261719 C 255.066406 141.089844 259.214844 140.523438 259.214844 136.675781 C 259.214844 136.675781 261.191406 137.363281 260.988281 139.269531 C 260.988281 139.269531 264.855469 136.835938 264.535156 133.960938 C 264.535156 133.960938 272.902344 150.480469 259.902344 149.882812 " fill-opacity="1" fill-rule="nonzero"/><path fill="#f79326" d="M 259.902344 149.882812 C 258.234375 149.804688 255.066406 149.4375 255.066406 145.261719 C 255.066406 141.089844 259.214844 140.523438 259.214844 136.675781 C 259.214844 136.675781 261.191406 137.363281 260.988281 139.269531 C 260.988281 139.269531 264.855469 136.835938 264.535156 133.960938 C 264.535156 133.960938 272.902344 150.480469 259.902344 149.882812 " fill-opacity="1" fill-rule="nonzero"/><path fill="#fff533" d="M 260.707031 142.695312 C 260.707031 142.695312 261.714844 145.664062 260.0625 145.664062 C 258.914062 145.664062 259.054688 144.410156 259.054688 144.410156 C 259.054688 144.410156 255.851562 149.632812 260.707031 149.632812 C 261.691406 149.632812 263.40625 149.429688 263.40625 146.757812 C 263.40625 144.085938 261.914062 143.007812 260.707031 142.695312 " fill-opacity="1" fill-rule="nonzero"/><g fill="#fbad83" fill-opacity="1"><g transform="translate(28.198915, 206.216361)"><g><path d="M 33.828125 -6.34375 L 2.75 -20.046875 L 2.75 -24.53125 L 33.828125 -40.046875 L 33.828125 -32.546875 L 12.421875 -22.609375 L 33.828125 -13.84375 Z M 33.828125 -6.34375 "/></g></g></g><g fill="#fbad83" fill-opacity="1"><g transform="translate(64.839313, 206.216361)"><g><path d="M 13.578125 0 L 34.078125 -51.246094 L 23.058594 -51.246094 L 2.5625 0 Z M 13.578125 0 "/></g></g></g><path stroke-linecap="butt" transform="matrix(0.333628, 0, 0, 0.333628, 23.387065, 152.673902)" fill="none" stroke-linejoin="miter" d="M 107.329703 132.966022 L 14.189522 91.904725 L 14.189522 78.451794 L 107.329703 32.004641 L 107.329703 54.44961 L 43.202893 84.224026 L 107.329703 110.521053 Z M 107.329703 132.966022 " stroke="#f75d0a" stroke-width="7.2" stroke-opacity="1" stroke-miterlimit="4"/><path stroke-linecap="butt" transform="matrix(0.333628, 0, 0, 0.333628, 23.387065, 152.673902)" fill="none" stroke-linejoin="miter" d="M 156.446366 152.003851 L 217.903665 -1.610124 L 184.897735 -1.610124 L 123.452145 152.003851 Z M 156.446366 152.003851 " stroke="#f75d0a" stroke-width="7.2" stroke-opacity="1" stroke-miterlimit="4"/><g clip-path="url(#44e2191a09)"><path fill="#f1473a" d="M 176.332031 148.917969 C 173.929688 148.917969 168 148.546875 167.476562 141.824219 C 167.476562 141.824219 169.011719 144.503906 169.015625 144.1875 C 169.019531 143.164062 167.476562 139.421875 171.339844 136.875 C 176.070312 133.757812 174.640625 129.929688 173.515625 129.855469 C 173.515625 129.855469 176.542969 129.554688 176.816406 133.507812 C 176.96875 135.65625 178.808594 129.449219 177.71875 126.015625 C 177.71875 126.015625 183.242188 128.898438 182.558594 135.988281 C 182.558594 135.988281 183.410156 134.382812 184.847656 135.242188 C 184.847656 135.242188 183.945312 135.546875 184.246094 137.910156 C 184.546875 140.273438 185.859375 148.917969 176.332031 148.917969 " fill-opacity="1" fill-rule="nonzero"/></g><path fill="#f79326" d="M 175.617188 148.671875 C 174.066406 148.601562 171.113281 148.265625 171.113281 144.460938 C 171.113281 140.65625 174.980469 140.136719 174.980469 136.628906 C 174.980469 136.628906 176.816406 137.257812 176.628906 138.992188 C 176.628906 138.992188 180.230469 136.777344 179.933594 134.15625 C 179.933594 134.15625 187.722656 149.214844 175.617188 148.671875 " fill-opacity="1" fill-rule="nonzero"/><path fill="#f79326" d="M 175.617188 148.671875 C 174.066406 148.601562 171.113281 148.265625 171.113281 144.460938 C 171.113281 140.65625 174.980469 140.136719 174.980469 136.628906 C 174.980469 136.628906 176.816406 137.257812 176.628906 138.992188 C 176.628906 138.992188 180.230469 136.777344 179.933594 134.15625 C 179.933594 134.15625 187.722656 149.214844 175.617188 148.671875 " fill-opacity="1" fill-rule="nonzero"/><path fill="#fff533" d="M 176.367188 142.117188 C 176.367188 142.117188 177.304688 144.824219 175.765625 144.824219 C 174.699219 144.824219 174.828125 143.679688 174.828125 143.679688 C 174.828125 143.679688 171.847656 148.445312 176.367188 148.445312 C 177.285156 148.445312 178.882812 148.261719 178.882812 145.824219 C 178.882812 143.386719 177.492188 142.402344 176.367188 142.117188 " fill-opacity="1" fill-rule="nonzero"/><g clip-path="url(#fd61670436)"><path fill="#f1473a" d="M 260.714844 210.527344 C 258.582031 210.527344 253.308594 210.183594 252.84375 203.894531 C 252.84375 203.894531 254.207031 206.402344 254.210938 206.105469 C 254.21875 205.148438 252.84375 201.648438 256.277344 199.265625 C 260.480469 196.347656 259.214844 192.769531 258.210938 192.699219 C 258.210938 192.699219 260.902344 192.417969 261.148438 196.113281 C 261.28125 198.125 262.914062 192.320312 261.949219 189.105469 C 261.949219 189.105469 266.859375 191.800781 266.25 198.433594 C 266.25 198.433594 267.007812 196.933594 268.285156 197.734375 C 268.285156 197.734375 267.484375 198.019531 267.75 200.230469 C 268.019531 202.441406 269.183594 210.527344 260.714844 210.527344 " fill-opacity="1" fill-rule="nonzero"/></g><g clip-path="url(#50d401dd76)"><path fill="#f79326" d="M 260.082031 210.300781 C 258.703125 210.234375 256.078125 209.917969 256.078125 206.359375 C 256.078125 202.800781 259.511719 202.316406 259.511719 199.035156 C 259.511719 199.035156 261.148438 199.621094 260.980469 201.246094 C 260.980469 201.246094 264.183594 199.171875 263.914062 196.71875 C 263.914062 196.71875 270.839844 210.808594 260.082031 210.300781 " fill-opacity="1" fill-rule="nonzero"/><path fill="#f79326" d="M 260.082031 210.300781 C 258.703125 210.234375 256.078125 209.917969 256.078125 206.359375 C 256.078125 202.800781 259.511719 202.316406 259.511719 199.035156 C 259.511719 199.035156 261.148438 199.621094 260.980469 201.246094 C 260.980469 201.246094 264.183594 199.171875 263.914062 196.71875 C 263.914062 196.71875 270.839844 210.808594 260.082031 210.300781 " fill-opacity="1" fill-rule="nonzero"/></g><g clip-path="url(#d4a195936c)"><path fill="#fff533" d="M 260.746094 204.167969 C 260.746094 204.167969 261.582031 206.703125 260.214844 206.703125 C 259.261719 206.703125 259.378906 205.632812 259.378906 205.632812 C 259.378906 205.632812 256.726562 210.089844 260.746094 210.089844 C 261.5625 210.089844 262.980469 209.914062 262.980469 207.636719 C 262.980469 205.355469 261.746094 204.433594 260.746094 204.167969 " fill-opacity="1" fill-rule="nonzero"/></g><g fill="#e38484" fill-opacity="1"><g transform="translate(106.425715, 219.87637)"><g><path d="M 66.050781 -46.625 L 19.425781 -46.625 L 19.425781 -77.707031 L 3.886719 -77.707031 L 3.886719 0 L 19.425781 0 L 19.425781 -31.082031 L 66.050781 -31.082031 L 66.050781 0 L 81.59375 0 L 81.59375 -77.707031 L 66.050781 -77.707031 Z M 66.050781 -46.625 "/></g></g></g><g fill="#e38484" fill-opacity="1"><g transform="translate(191.899775, 219.87637)"><g><path d="M 81.59375 0 L 81.59375 -15.542969 L 19.425781 -15.542969 L 19.425781 -62.167969 L 81.59375 -62.167969 L 81.59375 -77.707031 L 19.425781 -77.707031 C 10.878906 -77.707031 3.886719 -70.714844 3.886719 -62.167969 L 3.886719 -15.542969 C 3.886719 -6.992188 10.878906 0 19.425781 0 Z M 81.59375 0 "/></g></g></g><path stroke-linecap="butt" transform="matrix(1.010452, 0, 0, 1.010452, 102.132567, 139.799302)" fill="none" stroke-linejoin="miter" d="M 65.360055 28.859984 L 19.221216 28.859984 L 19.221216 -1.908263 L 3.850623 -1.908263 L 3.850623 74.998823 L 19.221216 74.998823 L 19.221216 44.230576 L 65.360055 44.230576 L 65.360055 74.998823 L 80.757708 74.998823 L 80.757708 -1.908263 L 65.360055 -1.908263 Z M 165.346224 74.998823 L 165.346224 59.62823 L 103.809732 59.62823 L 103.809732 13.485525 L 165.346224 13.485525 L 165.346224 -1.908263 L 103.809732 -1.908263 C 95.362864 -1.908263 88.439139 5.015463 88.439139 13.485525 L 88.439139 59.62823 C 88.439139 68.075097 95.362864 74.998823 103.809732 74.998823 Z M 165.346224 74.998823 " stroke="#c72020" stroke-width="3.605175" stroke-opacity="1" stroke-miterlimit="4"/><g fill="#fbad83" fill-opacity="1"><g transform="translate(296.002767, 206.216361)"><g><path d="M 2.75 -13.84375 L 24.15625 -22.609375 L 2.75 -32.546875 L 2.75 -40.046875 L 33.828125 -24.53125 L 33.828125 -20.046875 L 2.75 -6.34375 Z M 2.75 -13.84375 "/></g></g></g><path stroke-linecap="butt" transform="matrix(0.333628, 0, 0, 0.333628, 272.867418, 152.673902)" fill="none" stroke-linejoin="miter" d="M 69.11389 110.521053 L 133.228991 84.224026 L 69.11389 54.44961 L 69.11389 32.004641 L 162.254071 78.451794 L 162.254071 91.904725 L 69.11389 132.966022 Z M 69.11389 110.521053 " stroke="#f75d0a" stroke-width="7.2" stroke-opacity="1" stroke-miterlimit="4"/></svg>